<svg width="145" height="48" viewBox="0 0 145 48" fill="none" xmlns="http://www.w3.org/2000/svg">
<path d="M5.29469 10.5894C8.21887 10.5894 10.5894 8.21887 10.5894 5.29469C10.5894 2.37051 8.21887 0 5.29469 0C2.37051 0 0 2.37051 0 5.29469C0 8.21887 2.37051 10.5894 5.29469 10.5894Z" fill="#0000FE"/>
<path d="M14.8945 17.2115C17.8187 17.2115 20.1892 14.8409 20.1892 11.9168C20.1892 8.99258 17.8187 6.62207 14.8945 6.62207C11.9704 6.62207 9.59985 8.99258 9.59985 11.9168C9.59985 14.8409 11.9704 17.2115 14.8945 17.2115Z" fill="#0000FE"/>
<path d="M23.8333 24.8277C26.7574 24.8277 29.128 22.4572 29.128 19.533C29.128 16.6088 26.7574 14.2383 23.8333 14.2383C20.9091 14.2383 18.5386 16.6088 18.5386 19.533C18.5386 22.4572 20.9091 24.8277 23.8333 24.8277Z" fill="#0000FE"/>
<path d="M33.4336 31.4449C36.3578 31.4449 38.7283 29.0744 38.7283 26.1502C38.7283 23.226 36.3578 20.8555 33.4336 20.8555C30.5094 20.8555 28.1389 23.226 28.1389 26.1502C28.1389 29.0744 30.5094 31.4449 33.4336 31.4449Z" fill="#0000FE"/>
<path d="M25.1558 39.7222C28.08 39.7222 30.4505 37.3517 30.4505 34.4275C30.4505 31.5033 28.08 29.1328 25.1558 29.1328C22.2316 29.1328 19.8611 31.5033 19.8611 34.4275C19.8611 37.3517 22.2316 39.7222 25.1558 39.7222Z" fill="#0000FE"/>
<path d="M16.8833 47.9995C19.8075 47.9995 22.178 45.629 22.178 42.7048C22.178 39.7807 19.8075 37.4102 16.8833 37.4102C13.9591 37.4102 11.5886 39.7807 11.5886 42.7048C11.5886 45.629 13.9591 47.9995 16.8833 47.9995Z" fill="#0000FE"/>
<path d="M14.8945 32.439C17.8187 32.439 20.1892 30.0685 20.1892 27.1443C20.1892 24.2201 17.8187 21.8496 14.8945 21.8496C11.9704 21.8496 9.59985 24.2201 9.59985 27.1443C9.59985 30.0685 11.9704 32.439 14.8945 32.439Z" fill="#0000FE"/>
<path d="M58.6485 31H52.5285V13.96H58.6485C61.4805 13.96 63.6805 14.744 65.2485 16.312C66.8325 17.88 67.6245 19.936 67.6245 22.48C67.6245 25.024 66.8325 27.08 65.2485 28.648C63.6805 30.216 61.4805 31 58.6485 31ZM62.5845 26.392C63.4805 25.448 63.9285 24.144 63.9285 22.48C63.9285 20.816 63.4805 19.52 62.5845 18.592C61.7045 17.648 60.3605 17.176 58.5525 17.176H56.0325V27.784H58.5525C60.3605 27.784 61.7045 27.32 62.5845 26.392ZM73.3868 16.216C73.0028 16.6 72.5068 16.792 71.8988 16.792C71.2908 16.792 70.7948 16.6 70.4108 16.216C70.0268 15.832 69.8348 15.344 69.8348 14.752C69.8348 14.16 70.0268 13.672 70.4108 13.288C70.7948 12.888 71.2908 12.688 71.8988 12.688C72.5068 12.688 73.0028 12.888 73.3868 13.288C73.7708 13.672 73.9628 14.16 73.9628 14.752C73.9628 15.344 73.7708 15.832 73.3868 16.216ZM70.1948 31V18.424H73.6028V31H70.1948ZM85.6138 19.96V18.424H88.7578V30.52C88.7578 32.2 88.2138 33.576 87.1258 34.648C86.0378 35.72 84.5578 36.256 82.6858 36.256C80.9098 36.256 79.5258 35.784 78.5338 34.84C77.5578 33.896 77.0138 32.84 76.9018 31.672H80.3098C80.5338 32.776 81.3418 33.328 82.7338 33.328C83.5818 33.328 84.2298 33.112 84.6778 32.68C85.1258 32.248 85.3498 31.648 85.3498 30.88V29.128C84.5338 30.216 83.3098 30.76 81.6778 30.76C79.9658 30.76 78.5818 30.16 77.5258 28.96C76.4698 27.744 75.9418 26.24 75.9418 24.448C75.9418 22.656 76.4698 21.16 77.5258 19.96C78.5818 18.744 79.9658 18.136 81.6778 18.136C83.4698 18.136 84.7818 18.744 85.6138 19.96ZM84.6058 26.848C85.1658 26.24 85.4458 25.44 85.4458 24.448C85.4458 23.456 85.1658 22.656 84.6058 22.048C84.0458 21.44 83.3098 21.136 82.3978 21.136C81.4858 21.136 80.7498 21.44 80.1898 22.048C79.6298 22.656 79.3498 23.456 79.3498 24.448C79.3498 25.44 79.6298 26.24 80.1898 26.848C80.7498 27.456 81.4858 27.76 82.3978 27.76C83.3098 27.76 84.0458 27.456 84.6058 26.848ZM94.9493 16.216C94.5653 16.6 94.0693 16.792 93.4613 16.792C92.8533 16.792 92.3573 16.6 91.9733 16.216C91.5893 15.832 91.3973 15.344 91.3973 14.752C91.3973 14.16 91.5893 13.672 91.9733 13.288C92.3573 12.888 92.8533 12.688 93.4613 12.688C94.0693 12.688 94.5653 12.888 94.9493 13.288C95.3333 13.672 95.5253 14.16 95.5253 14.752C95.5253 15.344 95.3333 15.832 94.9493 16.216ZM91.7573 31V18.424H95.1653V31H91.7573ZM102.04 31H98.5363V13.96H109.84V17.176H102.04V20.752H109.48V23.968H102.04V31ZM115.293 16.216C114.909 16.6 114.413 16.792 113.805 16.792C113.197 16.792 112.701 16.6 112.317 16.216C111.933 15.832 111.741 15.344 111.741 14.752C111.741 14.16 111.933 13.672 112.317 13.288C112.701 12.888 113.197 12.688 113.805 12.688C114.413 12.688 114.909 12.888 115.293 13.288C115.677 13.672 115.869 14.16 115.869 14.752C115.869 15.344 115.677 15.832 115.293 16.216ZM112.101 31V18.424H115.509V31H112.101ZM127.52 19.96V18.424H130.664V30.52C130.664 32.2 130.12 33.576 129.032 34.648C127.944 35.72 126.464 36.256 124.592 36.256C122.816 36.256 121.432 35.784 120.44 34.84C119.464 33.896 118.92 32.84 118.808 31.672H122.216C122.44 32.776 123.248 33.328 124.64 33.328C125.488 33.328 126.136 33.112 126.584 32.68C127.032 32.248 127.256 31.648 127.256 30.88V29.128C126.44 30.216 125.216 30.76 123.584 30.76C121.872 30.76 120.488 30.16 119.432 28.96C118.376 27.744 117.848 26.24 117.848 24.448C117.848 22.656 118.376 21.16 119.432 19.96C120.488 18.744 121.872 18.136 123.584 18.136C125.376 18.136 126.688 18.744 127.52 19.96ZM126.512 26.848C127.072 26.24 127.352 25.44 127.352 24.448C127.352 23.456 127.072 22.656 126.512 22.048C125.952 21.44 125.216 21.136 124.304 21.136C123.392 21.136 122.656 21.44 122.096 22.048C121.536 22.656 121.256 23.456 121.256 24.448C121.256 25.44 121.536 26.24 122.096 26.848C122.656 27.456 123.392 27.76 124.304 27.76C125.216 27.76 125.952 27.456 126.512 26.848ZM138.128 31.288C134.704 31.288 132.888 29.832 132.68 26.92H136.136C136.168 27.384 136.352 27.776 136.688 28.096C137.04 28.4 137.552 28.552 138.224 28.552C138.864 28.552 139.352 28.448 139.688 28.24C140.024 28.032 140.192 27.752 140.192 27.4C140.192 27.016 139.952 26.736 139.472 26.56C138.992 26.368 138.408 26.216 137.72 26.104C137.048 25.992 136.368 25.84 135.68 25.648C134.992 25.456 134.408 25.08 133.928 24.52C133.448 23.96 133.208 23.216 133.208 22.288C133.208 21.12 133.672 20.136 134.6 19.336C135.528 18.536 136.744 18.136 138.248 18.136C139.96 18.136 141.232 18.568 142.064 19.432C142.896 20.296 143.344 21.28 143.408 22.384H140.12C140.088 21.952 139.904 21.592 139.568 21.304C139.248 21.016 138.8 20.872 138.224 20.872C137.68 20.872 137.256 20.992 136.952 21.232C136.648 21.456 136.496 21.744 136.496 22.096C136.496 22.48 136.736 22.76 137.216 22.936C137.696 23.112 138.272 23.256 138.944 23.368C139.632 23.464 140.312 23.608 140.984 23.8C141.672 23.992 142.256 24.376 142.736 24.952C143.216 25.528 143.456 26.296 143.456 27.256C143.456 28.424 142.976 29.392 142.016 30.16C141.072 30.912 139.776 31.288 138.128 31.288Z" fill="#020202"/>
</svg>
