<svg xmlns="http://www.w3.org/2000/svg" version="1.1" xmlns:xlink="http://www.w3.org/1999/xlink" xmlns:svgjs="http://svgjs.dev/svgjs" width="1500" height="1500" viewBox="0 0 1500 1500"><g transform="matrix(1,0,0,1,-0.323615160350073,-0.3236151603499593)"><svg viewBox="0 0 343 343" data-background-color="#ffffff" preserveAspectRatio="xMidYMid meet" height="1500" width="1500" xmlns="http://www.w3.org/2000/svg" xmlns:xlink="http://www.w3.org/1999/xlink"><g id="tight-bounds" transform="matrix(1,0,0,1,0.0740000000000407,0.07400000000001228)"><svg viewBox="0 0 342.85155851775386 342.85155851775386" height="342.85155851775386" width="342.85155851775386"><g><svg></svg></g><g><svg viewBox="0 0 342.85155851775386 342.85155851775386" height="342.85155851775386" width="342.85155851775386"><g><path d="M0 171.426c0-94.676 76.75-171.426 171.426-171.426 94.676 0 171.426 76.75 171.426 171.426 0 94.676-76.75 171.426-171.426 171.426-94.676 0-171.426-76.75-171.426-171.426zM171.426 333.025c89.249 0 161.599-72.351 161.599-161.599 0-89.249-72.351-161.599-161.599-161.6-89.249 0-161.599 72.351-161.6 161.6 0 89.249 72.351 161.599 161.6 161.599z" data-fill-palette-color="tertiary" fill="#001f3f" stroke="transparent"></path><ellipse rx="164.56874808852186" ry="164.56874808852186" cx="171.42577925887693" cy="171.42577925887693" fill="#001f3f" stroke="transparent" stroke-width="0" fill-opacity="1" data-fill-palette-color="tertiary"></ellipse></g><g transform="matrix(1,0,0,1,64.84655864529837,83.68142983020776)"><svg viewBox="0 0 213.1584412271571 175.48869885733833" height="175.48869885733833" width="213.1584412271571"><g><svg viewBox="0 0 213.1584412271571 175.48869885733833" height="175.48869885733833" width="213.1584412271571"><g><svg viewBox="0 0 213.1584412271571 175.48869885733833" height="175.48869885733833" width="213.1584412271571"><g id="textblocktransform"><svg viewBox="0 0 213.1584412271571 175.48869885733833" height="175.48869885733833" width="213.1584412271571" id="textblock"><g><svg viewBox="0 0 213.1584412271571 175.48869885733833" height="175.48869885733833" width="213.1584412271571"><g transform="matrix(1,0,0,1,0,0)"><svg width="213.1584412271571" viewBox="20.482169363135938 -24.269322214788772 31.198805660120776 25.684085154171733" height="175.48869885733833" data-palette-color="#eae5df"><path d="M28.991-24.268v0c2.286-0.042 4.039 0.82 5.259 2.584 1.219 1.765 1.86 4.36 1.922 7.787v0c0.027 1.48-0.106 2.952-0.399 4.418-0.293 1.459-0.726 2.76-1.299 3.904v0c-0.739 1.5-1.675 2.641-2.808 3.422-1.126 0.787-2.412 1.194-3.858 1.221v0c-2.126 0.039-3.862-0.963-5.206-3.006-1.351-2.036-2.056-4.693-2.116-7.972v0c-0.065-3.553 0.698-6.487 2.289-8.804 1.584-2.323 3.656-3.507 6.216-3.554zM28.024-2.767v0c1.793-0.033 3.192-1.032 4.196-2.997 1.011-1.972 1.488-4.495 1.432-7.567v0c-0.057-3.133-0.493-5.432-1.306-6.898-0.813-1.459-2.053-2.173-3.72-2.142v0c-1.693 0.031-3.059 0.979-4.099 2.846-1.039 1.866-1.532 4.265-1.478 7.198v0c0.051 2.806 0.52 5.108 1.406 6.905 0.893 1.797 2.083 2.682 3.569 2.655zM47.426-20.436v0c2.155 0.766 3.492 2.189 4.012 4.27 0.52 2.081 0.206 4.736-0.941 7.964v0c-0.496 1.395-1.139 2.726-1.929 3.995-0.788 1.262-1.652 2.328-2.59 3.197v0c-1.22 1.144-2.498 1.882-3.833 2.215-1.331 0.341-2.678 0.269-4.041-0.216v0c-2.004-0.712-3.275-2.261-3.815-4.645-0.548-2.381-0.273-5.117 0.826-8.207v0c1.19-3.348 2.937-5.826 5.242-7.434 2.301-1.616 4.657-1.996 7.069-1.139zM38.952-0.651v0c1.69 0.6 3.351 0.158 4.982-1.329 1.64-1.49 2.975-3.683 4.005-6.579v0c1.049-2.952 1.451-5.258 1.205-6.915-0.248-1.652-1.157-2.757-2.728-3.315v0c-1.596-0.567-3.208-0.16-4.838 1.221-1.63 1.381-2.936 3.453-3.918 6.217v0c-0.94 2.645-1.311 4.964-1.114 6.958 0.203 1.997 1.005 3.244 2.406 3.742z" opacity="1" transform="matrix(1,0,0,1,0,0)" fill="#eae5df" class="wordmark-text-0" data-fill-palette-color="quaternary" id="text-0"></path></svg></g></svg></g></svg></g></svg></g></svg></g></svg></g></svg></g><defs></defs></svg><rect width="342.85155851775386" height="342.85155851775386" fill="none" stroke="none" visibility="hidden"></rect></g></svg></g></svg>