<svg width="15" height="24" viewBox="0 0 15 24" fill="none" xmlns="http://www.w3.org/2000/svg">
<path d="M7.424 0C7.497 0.0151181 7.57091 0.0292913 7.64391 0.0444094C8.29452 0.177638 8.80187 0.532913 9.18147 1.09417C9.27728 1.23496 9.38952 1.36535 9.5045 1.49102C9.64867 1.64882 9.82296 1.76409 10.0228 1.83591C10.5238 2.01543 11.0238 2.19685 11.5239 2.38016C11.7419 2.46047 11.9591 2.54173 12.1726 2.63244C12.451 2.75055 12.6891 2.92724 12.8698 3.17953C12.9191 3.24756 12.9702 3.31748 12.9766 3.41386C12.8041 3.43937 12.6371 3.41953 12.4747 3.38362C12.0093 3.28252 11.5412 3.26268 11.0694 3.29953C10.9189 3.31087 10.7692 3.33827 10.6205 3.3685C10.3486 3.42331 10.2892 3.62551 10.3285 3.85984C10.3385 3.92031 10.3632 3.97795 10.3841 4.03559C10.8997 5.44346 11.5202 6.80031 12.2292 8.11464C12.7931 9.16063 13.3178 10.2274 13.7567 11.3376C14.0287 12.0265 14.2632 12.7276 14.4055 13.4589C14.4886 13.886 14.5333 14.3159 14.5169 14.7515C14.4968 15.275 14.3636 15.7691 14.1592 16.2454C13.9201 16.8009 13.6062 17.3055 13.1919 17.7402C13.1572 17.777 13.1189 17.811 13.0824 17.846C13.0742 17.8422 13.0669 17.8394 13.0587 17.8356C13.0587 17.8006 13.0587 17.7647 13.0587 17.7298C13.0632 17.1175 13.035 16.5071 12.9537 15.9005C12.9017 15.5074 12.8324 15.1172 12.6928 14.7458C12.638 14.6003 12.5632 14.4624 12.4938 14.3235C12.471 14.2772 12.4345 14.2384 12.3834 14.2016C12.3853 14.2346 12.3853 14.2687 12.3907 14.3017C12.4811 14.8602 12.5413 15.4224 12.5778 15.9874C12.617 16.594 12.6225 17.2006 12.5997 17.8082C12.5267 19.7877 11.9199 21.5603 10.7063 23.1005C10.5374 23.315 10.3458 23.5096 10.167 23.7146C10.1259 23.7609 10.0812 23.7798 10.0201 23.778C9.8768 23.7732 9.73353 23.777 9.57841 23.777C9.5848 23.7383 9.58662 23.7071 9.59483 23.6778C9.84212 22.7783 10.0045 21.8617 10.1122 20.9339C10.2664 19.5978 10.3075 18.257 10.2445 16.9134C10.188 15.7115 10.052 14.5191 9.79558 13.3436C9.76456 13.1991 9.74083 13.0526 9.71985 12.9061C9.71163 12.8494 9.71802 12.7909 9.72258 12.7332C9.73262 12.6161 9.78646 12.5367 9.8987 12.4942C10.0839 12.4243 10.2728 12.4016 10.4644 12.4356C10.7272 12.4819 10.9873 12.5452 11.2492 12.6009C11.2921 12.6104 11.335 12.6227 11.3779 12.6208C11.4591 12.617 11.4965 12.565 11.4673 12.4866C11.4417 12.4186 11.4043 12.3524 11.3605 12.2948C11.1443 12.0076 10.8714 11.7978 10.5402 11.675C10.2482 11.5663 9.95345 11.4624 9.65962 11.3575C9.29827 11.228 9.04095 10.9776 8.85753 10.6356C8.69237 10.3276 8.49983 10.0384 8.25711 9.78898C8.12023 9.64819 7.97058 9.5263 7.79721 9.43653C7.44498 9.25323 7.09185 9.25323 6.73962 9.43748C6.47773 9.57449 6.2706 9.77858 6.08718 10.011C5.77693 10.405 5.55155 10.8501 5.35992 11.3159C5.05788 12.0482 4.85257 12.8107 4.6938 13.5874C4.50582 14.5096 4.39085 15.4431 4.32697 16.3833C4.26492 17.3036 4.25032 18.2239 4.28865 19.1452C4.34978 20.6013 4.52042 22.0413 4.88451 23.4529C4.91097 23.5559 4.93926 23.6589 4.97028 23.7789C4.79417 23.7789 4.6281 23.7827 4.46293 23.7761C4.431 23.7751 4.39723 23.7354 4.36895 23.7071C3.95285 23.2866 3.59241 22.8189 3.27851 22.3134C2.71641 21.4072 2.31673 20.4331 2.11598 19.3739C2.01835 18.858 1.96451 18.3373 1.93987 17.8129C1.90976 17.177 1.92071 16.5402 1.96542 15.9052C2.00283 15.378 2.05758 14.8526 2.14427 14.331C2.15066 14.2904 2.15431 14.2498 2.16161 14.1855C2.12876 14.2186 2.10868 14.2346 2.09408 14.2545C1.96725 14.4274 1.88421 14.6239 1.81577 14.828C1.6935 15.1965 1.62506 15.5783 1.5767 15.9638C1.50187 16.5543 1.47358 17.1487 1.47815 17.7439C1.47815 17.7751 1.47815 17.8072 1.47815 17.8706C1.42066 17.8167 1.38233 17.7846 1.34766 17.7487C0.999996 17.3887 0.726246 16.9739 0.502684 16.5231C0.262696 16.0384 0.0938838 15.5291 0.0373088 14.9839C0.0318338 14.932 0.00993384 14.8828 -0.00375366 14.8318C-0.00375366 14.6665 -0.00375366 14.5011 -0.00375366 14.3357C0.0108463 14.2639 0.0290963 14.1921 0.0400463 14.1203C0.0719838 13.9087 0.0920588 13.6942 0.131296 13.4835C0.263609 12.771 0.490821 12.0888 0.752709 11.418C1.1898 10.2983 1.71813 9.22488 2.28206 8.16945C2.7228 7.34551 3.13981 6.51024 3.51211 5.65039C3.90357 4.74614 4.23846 3.81827 4.57243 2.88945C4.75767 2.37543 4.94656 1.86142 5.1975 1.37669C5.57983 0.639685 6.16748 0.204094 6.95223 0.0444094C7.0298 0.0283465 7.10736 0.0141732 7.18583 0C7.26522 0 7.34461 0 7.424 0ZM8.03172 2.73354C8.24707 2.73543 8.42136 2.55968 8.4241 2.33858C8.42683 2.12126 8.25072 1.93606 8.03902 1.93417C7.82732 1.93228 7.64938 2.11181 7.64756 2.33102C7.64482 2.55118 7.81728 2.73165 8.03172 2.73354Z" fill="white"/>
</svg>
